<?xml version="1.0" encoding="utf-8"?>
<!-- Generator: Adobe Illustrator 22.0.1, SVG Export Plug-In . SVG Version: 6.00 Build 0)  -->
<svg version="1.1" id="Layer_1" xmlns="http://www.w3.org/2000/svg" xmlns:xlink="http://www.w3.org/1999/xlink" x="0px" y="0px"
	 viewBox="0 0 64 64" style="enable-background:new 0 0 64 64;" xml:space="preserve">
<style type="text/css">
	.st0{fill-rule:evenodd;clip-rule:evenodd;fill:#3F2900;}
	.st1{clip-path:url(#SVGID_2_);fill:#1F1800;}
	.st2{fill-rule:evenodd;clip-rule:evenodd;fill:#EEFF7F;}
</style>
<circle class="st0" cx="32" cy="32" r="31"/>
<g>
	<defs>
		<circle id="SVGID_1_" cx="32" cy="32" r="31"/>
	</defs>
	<clipPath id="SVGID_2_">
		<use xlink:href="#SVGID_1_"  style="overflow:visible;"/>
	</clipPath>
	<path class="st1" d="M56,35.5H44.5v-0.2c0.1,0,0.1,0,0.2,0v-0.2c0.1,0,0.1,0,0.2,0v-0.2c0.1,0,0.1,0,0.2,0v-0.2c0.1,0,0.1,0,0.2,0
		v-0.2c0.1,0,0.1,0,0.2,0v-0.2c0.1,0,0.1,0,0.2,0v-0.2c0.1,0,0.1,0,0.2,0v-0.2c0.1,0,0.1,0,0.2,0v-0.2c0.1,0,0.1,0,0.2,0v-0.2
		c0.1,0,0.1,0,0.2,0v-0.2c0.1,0,0.1,0,0.2,0v-0.2c0.1,0,0.1,0,0.2,0v-0.2c0.1,0,0.1,0,0.2,0v-0.2c0.1,0,0.1,0,0.2,0v-0.2
		c0.1,0,0.1,0,0.2,0v-0.2c0.1,0,0.1,0,0.2,0v-0.2c0.1,0,0.1,0,0.2,0v-0.2c0.1,0,0.1,0,0.2,0v-0.2c0.1,0,0.1,0,0.2,0v-7.1
		c-3.5,0-7.1,0-10.6,0V25h0.2v-0.2H38v-0.2h0.2v-0.2h0.2v-0.2h0.2v-0.2h0.2v-0.2H39v-0.2h0.2v-0.2h0.2v-0.2h0.2v-0.2h0.2v-0.2h0.2
		v-0.2h0.2v-0.2h0.2v-0.2h0.2v-0.2h0.2v-0.2h0.2v-0.2h0.2v-0.2h0.2V18H38v-5H26.1v0.2h-0.2v0.2h-0.2v0.2h-0.2v0.2h-0.2v0.2h-0.2V14
		H25v0.2h-0.2v0.2h-0.2v0.2h-0.2v0.2h-0.2v0.2H24v0.2h-0.2v0.2h-0.2v0.2h-0.2v0.2h-0.2v0.2H23v0.2h-0.2v0.2h-0.2v0.2h-0.2v0.2h-0.2
		v0.2H22v0.2h-0.2v0.2h-0.2v0.2h-0.2v0.2h-0.2v0.2h-0.2v0.2h-0.2v0.2h-0.2V18h-0.2v0.2h-0.2v0.2h-0.2v0.2h-0.2v0.2h-0.2v0.2h-0.2V19
		h-0.2v0.2h-0.2v0.2h-0.2v0.2h-0.2v0.2h-0.2v0.2h-0.2V20h-0.2v0.2h-0.2v0.2h-0.2v0.2h-0.2v0.2h-0.2v0.2h-0.2v0.2H17v0.2h-0.2v0.2
		h-0.2v0.2h-0.2v0.2h-0.2v0.2H16v0.2h-0.2v0.2h-0.2v0.2h-0.2v0.2h-0.2v0.2H15v0.2h-0.2v0.2h-0.2v0.2h-0.2v0.2h-0.2v0.2H14v0.2h-0.2
		V24h-0.2v0.2h-0.2v0.2h-0.2v0.2h-0.2v0.2h-0.2v0.2h-0.2V25h-0.2v0.2h-0.2v0.2h-0.2v0.2h-0.2v0.2h-0.2v0.2h-0.2V26h-0.2v0.2h-0.2
		v0.2h-0.2v0.2h-0.2v0.2h-0.2v0.2h-0.2V27h-0.2v0.2H9.9v0.2H9.7v0.2H9.5v0.2H9.3v0.2H9.1v0.2H9v0.2H8.8v0.2H8.6v0.2H8.4v0.2H8.2v0.2
		H8v0.2H7.8v0.2H7.6v0.2H7.4v0.2H7.2v0.2H7V30H6.8v0.2H6.6v0.2H6.4v0.2H6.2v0.2H6v0.2H5.8V31H5.6v0.2H5.4v0.2H5.2v0.2H5v0.2H4.9v0.2
		H4.7V32H4.5v0.2H4.3v0.2H4.1v0.2H3.9v0.2H3.7v0.2H3.5V33H3.3v0.2H3.1v0.2H2.9v0.2H2.7v0.2H2.5v0.2H2.3v0.2H2.1v0.2H1.9v0.2H1.7v0.2
		H1.5v0.2H1.3v0.2H1.1v0.2H0.9v0.2H0.8v0.2H0.6v0.2H0.4v0.2H0.2V36H0v0.2h-0.2v0.2h-0.2v0.2h-0.2v0.2h-0.2v0.2H-1V37h-0.2v0.2h-0.2
		v0.2h-0.2v0.2h-0.2v0.2H-2v0.2h-0.2V38h-0.2v0.2h-0.2v0.2h-0.2v0.2H-3v0.2h-0.2v0.2h-0.2V39h-0.2v0.2h-0.2v0.2h-0.2v0.2h-0.2v0.2
		h-0.2v0.2h-0.2v0.2h-0.2v0.2h-0.2v0.2h-0.2v0.2h-0.2v0.2h-0.2v0.2h-0.2v0.2h-0.2v0.2h-0.2v0.2h-0.2v0.2h-0.2v0.2h-0.2V42h-0.2v0.2
		h-0.2v0.2h-0.2v0.2h-0.2v0.2h-0.2v0.2h-0.2V43H-8v0.2h-0.2v0.2h-0.2v0.2h-0.2v0.2h-0.2v0.2H-9V44h-0.2v0.2h-0.2v0.2h-0.2v0.2h-0.2
		v0.2H-10v0.2h-0.2V45h-0.2v0.2h-0.2v0.2h-0.2v0.2H-11v0.2h-0.2v0.2h-0.2v0.2h-0.2v0.2h-0.2v0.2h-0.2v0.2h-0.2v0.2h-0.2v0.2h-0.2
		v0.2h-0.2v0.2h-0.2v0.2h-0.2v0.2h-0.2v0.2h-0.2v0.2h-0.2v0.2h-0.2v0.2h-0.2v0.2h-0.2v0.2h-0.2v0.2h-0.2V49h-0.2v0.2h-0.2v0.2h-0.2
		v0.2h-0.2v0.2h-0.2v0.2h-0.2V50H-16v0.2h-0.2v0.2h-0.2v0.2h-0.2v0.2h-0.2v0.2H-17V51h-0.2v0.2h-0.2v0.2h-0.2v0.2h-0.2v0.2H-18v0.2
		h-0.2v0.2h-0.2v0.2h-0.2v0.2h-0.2v0.2H-19v0.2h-0.2v0.2h-0.2v0.2h-0.2v0.2h-0.2v0.2h-0.2v0.2h-0.2v0.2h-0.2v0.2h-0.2v0.2h-0.2v0.2
		h-0.2v0.2h-0.2v0.2h-0.2v0.2h-0.2V55h-0.2v0.2h-0.2v0.2h-0.2v0.2h-0.2v0.2h-0.2v0.2h-0.2V56h-0.2v2.2H-23v0.2h-0.2v0.2h-0.2v0.2
		h-0.2v0.2h-0.2v0.2H-24v0.2h-0.2v0.2h-0.2v0.2h-0.2v0.2h-0.2v0.2H-25v0.2h-0.2v0.2h-0.2v0.2h-0.2v0.2h-0.2v0.2H-26V61h-0.2v1.2
		c0,0,0,0-0.1,0v0.2c-0.1,0-0.1,0-0.2,0v0.2c-0.1,0-0.1,0-0.2,0v0.2c-0.1,0-0.1,0-0.2,0v0.2c-0.1,0-0.1,0-0.2,0V63
		c-0.1,0-0.1,0-0.2,0v0.2c-0.1,0-0.1,0-0.2,0v0.2c-0.1,0-0.1,0-0.2,0v0.2c-0.1,0-0.1,0-0.2,0v0.2c-0.1,0-0.1,0-0.2,0v0.2
		c-0.1,0-0.1,0-0.2,0V64c-0.1,0-0.1,0-0.2,0v0.2c-0.1,0-0.1,0-0.2,0v0.2c-0.1,0-0.1,0-0.2,0v0.2c-0.1,0-0.1,0-0.2,0v0.2
		c-0.1,0-0.1,0-0.2,0v0.2c-0.1,0-0.1,0-0.2,0V65c-0.1,0-0.1,0-0.2,0v0.2c-0.1,0-0.1,0-0.2,0v0.2c-0.1,0-0.1,0-0.2,0v0.2
		c-0.1,0-0.1,0-0.2,0v0.2c-0.1,0-0.1,0-0.2,0v0.2c-0.1,0-0.1,0-0.2,0v0.2c-0.1,0-0.1,0-0.2,0v0.2c-0.1,0-0.1,0-0.2,0v0.2
		c-0.1,0-0.1,0-0.2,0v0.2c-0.1,0-0.1,0-0.2,0v0.2c-0.1,0-0.1,0-0.2,0v0.2c-0.1,0-0.1,0-0.2,0v0.2c-0.1,0-0.1,0-0.2,0v0.2
		c-0.1,0-0.1,0-0.2,0v0.2c-0.1,0-0.1,0-0.2,0v0.2c-0.1,0-0.1,0-0.2,0v0.2c-0.1,0-0.1,0-0.2,0V68c-0.1,0-0.1,0-0.2,0v0.2
		c-0.1,0-0.1,0-0.2,0v3.6h-0.2v0.2h-0.2v0.2h-0.2v0.2h-0.2v0.2H-34v0.2h-0.2v0.2h-0.2V73h-0.2v0.2h-0.2v0.2H-35v0.2h-0.2v0.2h-0.2
		v0.2h-0.2V74h-0.2v0.2H-36v0.2h-0.2v0.2h-0.2v0.2h-0.2v0.2h-0.2V75h-0.2v0.2h-0.2v0.2h-0.2v0.2h-0.2v0.2h-0.2v0.2h-0.2v0.2h-0.2
		v0.2h-0.2v0.2h-0.2v0.2h-0.2v0.2h-0.2v0.2h-0.2v0.2h-0.2v0.2h-0.2v0.2h-0.2v0.2h-0.2v0.2h-0.2v0.2h-0.2v0.2h-0.2v0.2h-0.2v0.2h-0.2
		v8.2H-22v-0.2h0.2v-0.2h0.2v-0.2h0.2V86h0.2v-0.2h0.2v-0.2h0.2v-0.2h0.2v-0.2h0.2v-0.2h0.2V85h0.2v-0.2h0.2v-0.2h0.2v-0.2h0.2v-0.2
		h0.2v-0.2h0.2v-0.2h0.2v-0.2h0.2v-0.2h0.2v-0.2h0.2v-0.2h0.2v-0.2h0.2v-0.2h0.2v-0.2h0.2v-0.2h0.2v-0.2h0.2v-0.2h0.2v-0.2h0.2v-0.2
		h0.2v-0.2h0.2v-0.2h0.2v-0.2h0.2v-0.2h0.2V81h0.2v-0.2h0.2v-0.2h0.2v-0.2h0.2v-0.2h0.2v-0.2h0.2V80h0.2v-0.2h0.2v-0.2h0.2v-0.2h0.2
		v-0.2h0.2v-0.2h0.2V79h0.2v-0.2h0.2v-0.2h0.2v-0.2h0.2v-0.2h0.2v-0.2h0.2V78h0.2v-0.2h0.2v-0.2h0.2v-0.2h0.2v-0.2h0.2v-0.2h0.2
		v-0.2h0.2v-0.2h0.2v-0.2h0.2v-0.2h0.2v-0.2h0.2v-0.2h0.2v-0.2h0.2v-0.2h0.2v-0.2h0.2v-0.2h0.2v-0.2h0.2v0c0.3,0,0.5,0,0.8,0v0.2
		h-0.2v0.2h-0.2v0.2h-0.2v0.2h-0.2v0.2h-0.2v0.2h-0.2v0.2h-0.2v0.2h-0.2v0.2h-0.2v0.2h-0.2v0.2h-0.2v0.2h-0.2v0.2h-0.2v0.2h-0.2v0.2
		h-0.2v0.2h-0.2v0.2h-0.2v0.2h-0.2v0.2h-0.2v8.2H7v-0.2h0.2v-0.2h0.2v-0.2h0.2V86h0.2v-0.2H8v-0.2h0.2v-0.2h0.2v-0.2h0.2v-0.2h0.2
		V85H9v-0.2h0.2v-0.2h0.2v-0.2h0.2v-0.2h0.2v-0.2h0.2v-0.2h0.2v-0.2h0.2v-0.2h0.2v-0.2h0.2v-0.2h0.2v-0.2h0.2v-0.2h0.2v-0.2h0.2
		v-0.2h0.2v-0.2h0.2v-0.2h0.2v-0.2h0.2v-0.2h0.2v-0.2h0.2v-0.2h0.2v-0.2h0.2v-0.2h0.2V81h0.2v-0.2h0.2v-0.2h0.2v-0.2H14v-0.2h0.2
		v-0.2h0.2V80h0.2v-0.2h0.2v-0.2H15v-0.2h0.2v-0.2h0.2v-0.2h0.2V79h0.2v-0.2H16v-0.2h0.2v-0.2h0.2v-0.2h0.2v-0.2h0.2V78H17v-0.2h0.2
		v-0.2h0.2v-0.2h0.2v-0.2h0.2v-0.2h0.2v-0.2h0.2v-0.2h0.2v-0.2h0.2v-0.2h0.2v-0.2h0.2v-0.2h0.2v-0.2h0.2v-0.2h0.2v-0.2h0.2v-0.2h0.2
		v-0.2h0.2V75h0.2v-0.2h0.2v-0.2h0.2v-0.2h0.2v-0.2h0.2v-0.2h0.2V74h0.2v-0.2h0.2v-0.2h0.2v-0.2H22v-0.2h0.2v-0.2h0.2V73h0.2v-0.2
		h0.2v-0.2H23v-0.2h0.2v-0.2h0.2v-0.2h0.2V72h0.2v-0.2H24v-0.2h0.2v-0.2h0.2v-0.2h0.2v-0.2h0.2v-0.2H25v-0.2h0.2v-0.2h0.2v-0.2h0.2
		v-0.2h0.2v-0.2h0.2v-0.2h0.2v-0.2h0.2v-0.2h0.2v-0.2h0.2v-0.2h0.2V69h0.2v-0.2h0.2v-0.2h0.2v-0.2h0.2v-0.2h0.2v-0.2h0.2V68h0.2
		v-0.2h0.2v-0.2h0.2v-0.2h0.2v-0.2h0.2v-0.2h0.2V67h0.2v-0.2h0.2v-0.2h0.2v-0.2H30v-0.2h0.2v-0.2h0.2V66h0.2v-0.2h0.2v-0.2H31v-0.2
		h0.2v-0.2h0.2v-0.2h0.2v-0.2h0.2v-0.2H32v-0.2h0.2v-0.2h0.2v-0.2h0.2v-0.2h0.2v-0.2H33v-0.2h0.2v-0.2h0.2v-0.2h0.2v-0.2h0.2V63h0.2
		v-0.2h0.2v-0.2h0.2v-0.2h0.2v-0.2h0.2v-0.2h0.2V62h0.2v-0.2h0.2v-0.2h0.2v-0.2h0.2v-0.2h0.2v-0.2h0.2V61h0.2v-0.2h0.2v-0.2h0.2
		v-0.2h0.2v-0.2h0.2v-0.2h0.2V60h0.2v-0.2h0.2v-0.2h0.2v-0.2H38v-0.2h0.2v-0.2h0.2v-0.2h0.2v-0.2h0.2v-0.2H39v-0.2h0.2v-0.2h0.2
		v-0.2h0.2v-0.2h0.2v-0.2H40v-0.2h0.2v-0.2h0.2v-0.2h0.2v-0.2h0.2v-0.2H41v-0.2h0.2v-0.2h0.2v-0.2h0.2v-0.2h0.2V56h0.2v-0.2h0.2
		v-0.2h0.2v-0.2h0.2v-0.2h0.2v-0.2h0.2V55h0.2v-0.2h0.2v-0.2h0.2v-0.2h0.2v-0.2h0.2v-0.2h0.2V54h0.2v-0.2h0.2v-0.2h0.2v-0.2h0.2
		v-0.2h0.2v-0.2h0.2v-0.2h0.2v-0.2h0.2v-0.2h0.2v-0.2H46v-0.2h0.2v-0.2h0.2v-0.2h0.2v-0.2h0.2v-0.2H47v-0.2h0.2v-0.2h0.2v-0.2h0.2
		v-0.2h0.2v-0.2H48v-0.2h0.2v-0.2h0.2v-0.2h0.2V50h0.2v-0.2H49v-0.2h0.2v-0.2h0.2v-0.2h0.2v-0.2h0.2V49h0.2v-0.2h0.2v-0.2h0.2v-0.2
		h0.2v-0.2h0.2v-0.2h0.2V48h0.2v-0.2h0.2v-0.2h0.2v-0.2h0.2v-0.2h0.2v-0.2h0.2v-0.2h0.2v-0.2h0.2v-0.2h0.2v-0.2h0.2v-0.2h0.2v-0.2
		h0.2v-0.2h0.2v-0.2h0.2v-0.2h0.2v-0.2H54v-0.2h0.2v-0.2h0.2v-0.2h0.2v-0.2h0.2v-0.2H55v-0.2h0.2v-0.2h0.2V44h0.2v-0.2h0.2v-0.2H56
		V35.5z"/>
</g>
<path class="st2" d="M56,35.5v8.2H37.2v-8.2H56L56,35.5z M34.6,14.5h1.8v2.1h-1.8V14.5L34.6,14.5z M38,18v-5H26.1v5h-3.3v3.9h18.5
	V18H38L38,18z M8.1,43.7H27v-8.2H8.1V43.7L8.1,43.7z M15.9,25.1v7.1c10.8,0,21.5,0,32.3,0v-7.1C37.5,25.1,26.7,25.1,15.9,25.1
	L15.9,25.1z M27.7,14.5h1.8v2.1h-1.8V14.5L27.7,14.5z M31.2,14.5H33v2.1h-1.8V14.5z"/>
</svg>
